<svg xmlns="http://www.w3.org/2000/svg" width="170.231" height="38.371" viewBox="0 0 170.231 38.371"><defs><style>.a{fill:#512c1e;}</style></defs><g transform="translate(0 1.459)"><path class="a" d="M728.309,2612.1a10.235,10.235,0,0,1-2.563,4.536,25.612,25.612,0,0,1-4.728,4.047c-.389,2.212-.756,4.433-1.032,6.661q-.21,1.692-.35,3.392c-.109,1.341-.46,2.677-.552,4.01a1.259,1.259,0,1,1-2.517.043,34.468,34.468,0,0,1-.1-4.494c.11-1.3.258-2.589.432-3.877.169-1.251.368-2.5.591-3.735a27.025,27.025,0,0,1-4.99,1.792q-.475,2.31-.749,4.657a17.714,17.714,0,0,1-.323,1.838,13.343,13.343,0,0,1-.748,3.145,1.1,1.1,0,0,1-1.8.176,6.14,6.14,0,0,1-.446-2.889,17.151,17.151,0,0,1,.11-2.979c.149-1.119.334-2.234.548-3.343a21.762,21.762,0,0,1-4.182.047c-.407-.036-.54-.722-.076-.756a40.563,40.563,0,0,0,4.523-.579c.027-.122.051-.244.078-.367a46.43,46.43,0,0,1,1.438-5.031q.533-1.543,1.143-3.059a30.04,30.04,0,0,1,1.443-2.787c.611-1.155,2.733-.814,2.259.629-1.06,3.229-2.109,6.455-2.883,9.764a26.839,26.839,0,0,0,5-2.081q.225-1.133.474-2.265c.841-3.8,2.047-8.6,6.417-9.689a3.885,3.885,0,0,1,3.265.6C728.762,2610.107,728.5,2611.241,728.309,2612.1Zm-1.635-1.156c-2.3-.474-3.825,2.248-4.453,4.1a23.583,23.583,0,0,0-.83,3.5,26.325,26.325,0,0,0,2.047-1.749C724.966,2615.344,726.892,2613.219,726.674,2610.944Z" transform="translate(-704.54 -2607.914)"/><path class="a" d="M730.664,2621.593a5.87,5.87,0,0,1-1.273,2.312c-1.7,2.075-4.91,4.095-7.78,3.76-.007.049-.015.1-.019.147a3.619,3.619,0,0,0,1.837,2.87c1.122.745,2.655.355,3.768-.178.3-.143.435.361.247.534a5.722,5.722,0,0,1-4.551,1.43,4.626,4.626,0,0,1-4.246-3.552c-.987-3.633,1.229-7.56,4.225-9.513,1.619-1.055,3.976-2.047,5.916-1.308A3.141,3.141,0,0,1,730.664,2621.593Zm-2.53.235c-.222-1-2.617.459-2.908.653a9.272,9.272,0,0,0-3.225,3.76,15.047,15.047,0,0,0,1.638-.5,8.3,8.3,0,0,0,3.1-1.906C727.059,2623.513,728.245,2622.331,728.134,2621.828Z" transform="translate(-699.959 -2604.924)"/><path class="a" d="M742.315,2619.206a63.517,63.517,0,0,0-1.851,8.632c-.247,1.785-.261,3.592-.4,5.386-.037.488.072,1.882-.471,1.981-.459.084-1.2-.8-1.409-1.118-1.239-1.869-.19-4.874.13-6.919q.209-1.339.5-2.665a32.063,32.063,0,0,1-2.389,2.646,35.325,35.325,0,0,1-3.719,3.211c-1.193.89-2.9,1.879-4.188.545-1.211-1.248-1.277-3.575-.9-5.156a9.176,9.176,0,0,1,2.607-4.483c2.453-2.39,7.149-4.009,10.508-2.789C741.37,2618.01,742.586,2618.255,742.315,2619.206Zm-3.334,2.011a25.814,25.814,0,0,0-2.669.523,9.74,9.74,0,0,0-2.948,1.4c-1.388,1.011-3.446,3.531-2.693,5.351.226.544.158.56.693.3a6.78,6.78,0,0,0,.887-.62c.484-.354.964-.717,1.429-1.1a27.32,27.32,0,0,0,2.614-2.486A29.253,29.253,0,0,0,738.981,2621.218Z" transform="translate(-696.984 -2604.849)"/><path class="a" d="M748.664,2627.348a17.181,17.181,0,0,1-2.069,4.37c-.744,1.264-1.757,3.269-3.112,3.962a2.867,2.867,0,0,1-3.15-.473c-1.711-1.521-1.243-4.762-1.13-6.8a42.435,42.435,0,0,1,2.025-10.525,52.336,52.336,0,0,1,1.91-5.084,23.087,23.087,0,0,1,1.553-3.009,3.079,3.079,0,0,1,1.949-1.639,1.029,1.029,0,0,1,1.213.926c0,1.629-.936,3.308-1.536,4.81-.5,1.251-.995,2.5-1.419,3.776a58.986,58.986,0,0,0-2.027,7.987c-.271,1.487-.5,2.979-.713,4.474-.156,1.074-.926,5.8,1.449,4.083a11.143,11.143,0,0,0,2.4-3.36c.746-1.282,1.23-2.685,1.945-3.977C748.206,2626.409,748.749,2626.994,748.664,2627.348Z" transform="translate(-693.138 -2608.13)"/></g><path class="a" d="M771.892,2616.76c.412.119.565.845.053.931a19.758,19.758,0,0,1-3.306.068q-1.73,0-3.46.068c-.415.017-.83.04-1.245.065q-.852,2.431-1.558,4.907c-.661,2.307-1.177,4.651-1.639,7.005.047-.077.089-.157.137-.233a8.676,8.676,0,0,1,4.25-3.839,2.646,2.646,0,0,1,3.693,2.095,11.613,11.613,0,0,1-.14,3.254c-.158,1.4-.33,2.789-.495,4.184-.142,1.2-2.231,1.072-2.058-.238.255-1.925.569-3.85.781-5.78.056-.5.2-1.526-.24-1.933-.564-.523-1.707.314-2.179.682a10.627,10.627,0,0,0-2.665,3.6c-.455.875-.851,1.784-1.256,2.685a25.566,25.566,0,0,0-1.156,2.5c-.048.189-.1.376-.149.564-.005.021-.011.041-.016.061-.019.065-.033.131-.052.2l-.019-.012c-.486,1.056-2.2,1.346-2.392-.1a29.75,29.75,0,0,1,.379-9.04c-.427.619-.858,1.234-1.3,1.845-1.393,1.929-3.612,6.167-6.633,5.183-3.392-1.105-3.03-6.627-2.74-9.356a36.718,36.718,0,0,1,1.016-5.53q-1.547.412-3.082.865a.945.945,0,1,1-.645-1.773q2.153-.688,4.358-1.216c.229-.691.476-1.38.75-2.063a34.03,34.03,0,0,1,2.046-4.207,13.064,13.064,0,0,1,3.657-4.611,1.426,1.426,0,0,1,2.2,1.494,33.651,33.651,0,0,1-2.653,5.359c-.5,1-.962,2.033-1.381,3.076,1.638-.283,3.285-.516,4.932-.707q1.437-.163,2.877-.252.5-1.258,1.046-2.5c.531-1.2,1.169-2.317,1.8-3.468a13.245,13.245,0,0,1,2.234-3.2c.7-.683,2.274-.409,1.932.818-.732,2.636-1.961,5.2-2.944,7.761-.055.141-.1.283-.157.424l.511-.009c2.206-.031,4.763-.241,6.9.367Zm-11.965,1.486q-1.109.124-2.215.268c-1.917.25-3.813.591-5.7.994a38.624,38.624,0,0,0-1.892,8.57c-.09.894-.3,1.821-.315,2.712-.011.559.007,1.591.487,1.944,1.066.781,2.287-1.231,2.783-1.831.551-.668,1.07-1.354,1.578-2.054q1.586-2.185,3.049-4.452c.2-.318.4-.636.6-.953q.285-1.058.592-2.088Q759.364,2619.782,759.927,2618.246Z" transform="translate(-691.809 -2607.033)"/><path class="a" d="M837.914,2617.386c-.028,1.648-1.352,2.862-2.5,3.866a21.714,21.714,0,0,1-3.065,2.248c-.116.611-.2,1.227-.271,1.837a19.373,19.373,0,0,0-.136,2.858,4.2,4.2,0,0,0,.327,1.685c.3.643,1.062,1.482,1.847,1.336.494-.093.935.67.482.986a3.251,3.251,0,0,1-3.662-.012c-1.273-.741-1.7-2.428-1.8-3.8a18.851,18.851,0,0,1,0-2.586c-.031.041-.061.084-.09.125a34.041,34.041,0,0,1-4.347,5.1c-1.365,1.235-3.219,2.265-5.13,1.808-2.763-.666-3.674-4.052-3.392-6.537a15.775,15.775,0,0,1,4.469-9.7c1.419-1.346,4.4-3.2,5.86-.812,1.13,1.841-.016,4.282-1,5.931a12.651,12.651,0,0,1-3.151,3.5,9.411,9.411,0,0,1-3,1.651,3.821,3.821,0,0,0,.616,2.862c1.6,1.977,3.544,0,4.75-1.295a43.277,43.277,0,0,0,5.112-6.706,16.4,16.4,0,0,1,1.187-3.091c.752-1.469,1.892-3.262,3.572-3.715A2.54,2.54,0,0,1,837.914,2617.386Zm-18.384,8.37c.168-.08.334-.164.5-.257a10.5,10.5,0,0,0,2.212-1.672,9.982,9.982,0,0,0,2.174-3.235,6.452,6.452,0,0,0,.547-2.025q.3-.819-.519-.882a3.708,3.708,0,0,0-.354.214c-.835.2-1.95,1.776-2.468,2.579a14.485,14.485,0,0,0-1.789,4.073C819.73,2624.922,819.622,2625.331,819.53,2625.757Zm15.977-8.449c-.73.149-1.473,1.583-1.807,2.191a11.977,11.977,0,0,0-1.015,2.542,22.384,22.384,0,0,0,2.77-2.636,2.468,2.468,0,0,0,.721-1.35C836.191,2617.647,836,2617.205,835.507,2617.308Z" transform="translate(-667.683 -2604.521)"/><g transform="translate(77.704 2.345)"><path class="a" d="M776.317,2620.382a29.9,29.9,0,0,1-1.065,6.044c-.456,1.908-.941,3.807-1.551,5.672-1.032,3.157-2.651,7.052-5.534,8.959-1.37.908-3.4,1.281-4.636-.078-.976-1.077-.539-2.78.011-3.946a9.122,9.122,0,0,1,6.79-4.777c.44-1.251.811-2.527,1.155-3.812.375-1.408.766-2.812,1.128-4.226l.093-.367q-.908,1.355-1.861,2.679c-.784,1.082-1.575,2.161-2.3,3.278a3.2,3.2,0,0,1-2.509,1.66c-2.892.055-2.7-4.052-2.458-5.971.309-2.461.97-5.343,2.643-7.248a1.421,1.421,0,0,1,2.49,1.207c-.371,1.937-1.112,3.8-1.561,5.723a11.918,11.918,0,0,0-.434,2.359c-.067,3.389,1.377,1.346,2.206.316a60.512,60.512,0,0,0,4.476-6.556,13.592,13.592,0,0,1,.529-1.392A1.225,1.225,0,0,1,776.317,2620.382Zm-6.373,12.921c-2.239,1.151-4.6,2.431-5.268,5.026-.178.689-.359,1.66.547,1.7s1.739-1.442,2.257-2.123a16.073,16.073,0,0,0,1.659-2.754C769.432,2634.546,769.7,2633.929,769.943,2633.3Z" transform="translate(-762.951 -2605.846)"/><path class="a" d="M790.836,2627.539c-.341.853-.71,1.695-1.1,2.529-.725,1.562-1.536,3.08-2.392,4.574s-1.852,2.979-3.771,2.936c-1.96-.042-2.742-2.376-3.1-3.985-.841-3.769-.069-7.927.761-11.637.359-1.6.776-3.2,1.277-4.773-.712.161-1.423.321-2.128.5-1.748.449-2.413-2.656-.8-3.24a16.563,16.563,0,0,1,4.3-.978c.251-.6.512-1.193.792-1.776.4-.829.927-1.486,1.375-2.288.757-1.36,2.856-.191,2.51,1.184-.257,1.017-.556,2.023-.875,3.025a2.362,2.362,0,0,1,1.443.878.677.677,0,0,1-.169,1,7.056,7.056,0,0,1-2.138.753c-.591,1.766-1.176,3.533-1.626,5.342a57.8,57.8,0,0,0-1.628,9.342c-.072.9-.307,4.389.974,4.588.309.05.9-.653,1.088-.876a12.978,12.978,0,0,0,1.123-1.691c.741-1.22,1.326-2.543,2.1-3.733.216-.332,1.7-2.922,2.21-3.007a.111.111,0,0,1,.128.068C791.365,2626.593,790.949,2627.259,790.836,2627.539Z" transform="translate(-757.76 -2608.796)"/><path class="a" d="M798,2624.275a3.763,3.763,0,0,1-2.275,2.57,2.452,2.452,0,0,1-1.435-.113,8.708,8.708,0,0,1-2.061,4.167,3.293,3.293,0,0,1-4.631-.12c-1.675-1.541-1.785-3.95-1.269-6.029.859-3.468,3.656-8.927,8.046-7.515a1.545,1.545,0,0,1,.67,2.248c.015.141.024.281.025.414a29.493,29.493,0,0,1-.519,5.579c-.02.109-.04.217-.061.327a1.192,1.192,0,0,0,.565.175,2.745,2.745,0,0,0,1.118-.3c.814-.4,1.046-.974,1.606-1.574C797.9,2623.974,798.039,2624.143,798,2624.275Zm-4.971,1.648c-.048-.049-.093-.1-.136-.154a6.019,6.019,0,0,1-1.136-3.924,10.73,10.73,0,0,0-1.309,2.575,7.955,7.955,0,0,0-.738,3.272c.08.689.628,1.314,1.393.975a3.2,3.2,0,0,0,1.141-1.33C792.515,2626.891,792.783,2626.415,793.028,2625.923Zm1.318-5.883a1.468,1.468,0,0,1-.152.042,3.009,3.009,0,0,0-1.121.455,8.574,8.574,0,0,0,.025,3.192,3.918,3.918,0,0,0,.345,1.271,9.749,9.749,0,0,0,.537-1.7A11.068,11.068,0,0,0,794.347,2620.04Z" transform="translate(-755.319 -2606.084)"/><path class="a" d="M821.475,2624.438c-.258,2.889-2.337,5.515-4.594,7.2-2.77,2.067-6.2,2.691-9.576,2.834-1.728.073-1.763-2.676-.264-3.1,2.278-.64,4.753-.936,6.814-2.179a10.251,10.251,0,0,0,3.755-3.889c.595-1.1,1.095-2.357-.016-3.375a4.979,4.979,0,0,0-3.527-1.275,6.221,6.221,0,0,0-3.04,1.333c-.607.573-1.24,1.128-1.9,1.672-.568.47-1.711-.343-1.15-.959a17.182,17.182,0,0,1,2.48-2.265,28.209,28.209,0,0,0,3.982-5.253c.6-1.025,1.952-2.775,1.67-4.063-.44-2.011-3.838,1.46-4.369,2.028a23.3,23.3,0,0,0-4.649,7.424,47.8,47.8,0,0,0-1.663,5.168c-.37,1.4-.728,2.85-.978,4.309a19.84,19.84,0,0,1-.331,3,1.526,1.526,0,0,1-1.464,1.372,1.634,1.634,0,0,1-1.564-1.394,13.7,13.7,0,0,1-.067-4.946,33.949,33.949,0,0,1,.806-4.575,68.11,68.11,0,0,1,3.629-10.595,1.179,1.179,0,0,1,2.26.628c-.207,1.109-.4,2.221-.605,3.329a24.331,24.331,0,0,1,3.634-4.821c1.366-1.377,4.6-4.547,6.408-2.048,1.43,1.979-.648,5.067-1.7,6.709-.443.692-.91,1.349-1.4,1.978a7.7,7.7,0,0,1,1.592-.223A5.7,5.7,0,0,1,821.475,2624.438Z" transform="translate(-750.437 -2608.707)"/></g></svg>