<svg xmlns="http://www.w3.org/2000/svg" xmlns:xlink="http://www.w3.org/1999/xlink" width="92.041" height="72.469" viewBox="0 0 92.041 72.469"><defs><style>.a,.b{fill:none;}.a,.c{clip-rule:evenodd;}.c,.i,.l{fill:#f99f24;}.d{clip-path:url(#a);}.e{clip-path:url(#b);}.f{fill:#f3c182;}.g{clip-path:url(#c);}.h{clip-path:url(#e);}.j{clip-path:url(#g);}.k{clip-path:url(#i);}.l{fill-rule:evenodd;}.m{clip-path:url(#k);}.n{fill:#f0a343;}.o{clip-path:url(#m);}.p{clip-path:url(#o);}.q{clip-path:url(#q);}.r{clip-path:url(#s);}.s{clip-path:url(#u);}.t{clip-path:url(#w);}.u{clip-path:url(#y);}.v{clip-path:url(#aa);}.w{fill:#401f17;}.x{clip-path:url(#ac);}.y{clip-path:url(#ae);}.z{clip-path:url(#ag);}.aa{clip-path:url(#ai);}.ab{clip-path:url(#ak);}.ac{clip-path:url(#am);}.ad{clip-path:url(#ao);}.ae{clip-path:url(#aq);}.af{clip-path:url(#as);}.ag{clip-path:url(#au);}.ah{clip-path:url(#aw);}.ai{clip-path:url(#ay);}.aj{clip-path:url(#ba);}.ak{clip-path:url(#bc);}.al{clip-path:url(#be);}.am{clip-path:url(#bg);}.an{clip-path:url(#bi);}.ao{clip-path:url(#bk);}.ap{clip-path:url(#bm);}.aq{clip-path:url(#bo);}.ar{clip-path:url(#bq);}.as{clip-path:url(#bs);}.at{clip-path:url(#bu);}</style><clipPath id="a"><path class="a" d="M444.871,2601.4c-.426-.175-.852-.342-1.277-.495-2.108-.76-5.125-1.86-7.337-.979-2.083.831.095,2.146,1.294,2.26,1.154.111,2.321.016,3.472.143a39.4,39.4,0,0,1,4.843.973c.206-.206.417-.4.633-.6A17.733,17.733,0,0,1,444.871,2601.4Z" transform="translate(-435.392 -2599.604)"/></clipPath><clipPath id="b"><rect class="b" width="423.174" height="423.174"/></clipPath><clipPath id="c"><path class="a" d="M447.722,2601.759a34.775,34.775,0,0,0-2.058-3.648,5.723,5.723,0,0,0-3.488-2.692c-.464-.1-2.094-.6-1.964.318.232,1.669,1.66,3.413,2.823,4.574.528.525,1.082,1.045,1.661,1.541a24.626,24.626,0,0,1,2.761,1.277c.223-.137.45-.272.681-.407A8.615,8.615,0,0,0,447.722,2601.759Z" transform="translate(-440.204 -2595.193)"/></clipPath><clipPath id="e"><path class="a" d="M437.515,2610.763a6.619,6.619,0,0,0,2.526,6.672,58.1,58.1,0,0,0-2.351-7.406A6.209,6.209,0,0,0,437.515,2610.763Z" transform="translate(-437.397 -2610.028)"/></clipPath><clipPath id="g"><path class="a" d="M446.057,2601.208c-.219.135-.433.269-.642.407.36.207.714.42,1.058.65A11.17,11.17,0,0,1,446.057,2601.208Z" transform="translate(-445.415 -2601.208)"/></clipPath><clipPath id="i"><path class="a" d="M444.063,2602.41q-.334.267-.652.547c.879.188,1.757.37,2.644.51A14.718,14.718,0,0,1,444.063,2602.41Z" transform="translate(-443.411 -2602.41)"/></clipPath><clipPath id="k"><path class="c" d="M444.051,2604.019c-.518-.133-1.037-.27-1.557-.406-.321.446-.631.9-.923,1.377-.057.042-.11.089-.165.132a.666.666,0,0,1,.21.077C442.376,2604.778,443.206,2604.4,444.051,2604.019Z" transform="translate(-441.406 -2603.613)"/></clipPath><clipPath id="m"><path class="a" d="M445.014,2605.034a48.291,48.291,0,0,0,6.221,13.809.755.755,0,0,1,.055.785l.008,0a33.564,33.564,0,0,0,3.759-2.149.739.739,0,0,1,.008-.682c-.264.54.005.559-.376-.083-.282-.477-.573-.947-.868-1.416-.835-1.325-1.686-2.638-2.54-3.95-1.371-2.111-2.8-4.2-4.094-6.36-.019,0-.034,0-.053,0-.533-.036-1.061-.1-1.586-.172C445.372,2604.891,445.192,2604.961,445.014,2605.034Z" transform="translate(-445.014 -2604.816)"/></clipPath><clipPath id="o"><path class="a" d="M445.974,2617.042c-.408-1.451-.889-2.88-1.42-4.288a46.528,46.528,0,0,0-2.946-6.735c-.474.281-.947.59-1.405.921a38.125,38.125,0,0,1,4.586,13.882,12.133,12.133,0,0,0,1.722-.058.922.922,0,0,1-.03-.652C446.744,2619.27,446.2,2617.835,445.974,2617.042Z" transform="translate(-440.203 -2606.019)"/></clipPath><clipPath id="q"><path class="a" d="M450.667,2619.493a52.177,52.177,0,0,1-6-14.276c-.491.206-.97.409-1.417.621-.208.1-.423.206-.64.315a48,48,0,0,1,3.2,7.528c.724,2.042,2.121,5.1,1.61,7.4a17.417,17.417,0,0,0,3.651-1.258A.722.722,0,0,1,450.667,2619.493Z" transform="translate(-442.609 -2605.217)"/></clipPath><clipPath id="s"><path class="a" d="M438.6,2609.577a.662.662,0,0,1,.069.108,64.466,64.466,0,0,1,3.542,10.022,10.124,10.124,0,0,0,1.6.47c.025.005.05.008.075.012a35.436,35.436,0,0,0-3.957-12.166A9.539,9.539,0,0,0,438.6,2609.577Z" transform="translate(-438.599 -2608.024)"/></clipPath><clipPath id="u"><path class="a" d="M453.126,2612.445c-1.64-2.583-3.372-5.128-4.9-7.779a.885.885,0,0,0,.241-.628,6.346,6.346,0,0,0,1.328-1.4.831.831,0,0,0,.112-.726c4.694-2.344,11.316-1.046,12.471,4.8a8.1,8.1,0,0,1-2.547,7.2,32.942,32.942,0,0,1-3.781,3.3c-.144-.308-.347-.6-.488-.842C454.786,2615.034,453.949,2613.741,453.126,2612.445Zm2.3-6.868.036.032a.824.824,0,0,0,.834.732.815.815,0,0,0,1.219-.749c-.012-.24-.022-.48-.034-.721a.732.732,0,0,0-.164-.429,1.3,1.3,0,0,0-.52-.452,1.179,1.179,0,0,0-1.447.448A.827.827,0,0,0,455.429,2605.576Zm-1.917,4.913a4.062,4.062,0,0,1,.781,1.073,2.529,2.529,0,0,0,.088-.383c.018-.126.029-.245.036-.36A2.366,2.366,0,0,0,453.512,2610.489Z" transform="translate(-448.222 -2600.807)"/></clipPath><clipPath id="w"><path class="a" d="M456.612,2599.8a9.471,9.471,0,0,1,7.164,8c.026-.128.053-.255.074-.383.624-3.757-1.846-6.535-5.069-7.5a9.88,9.88,0,0,0-1.146-.261c-3.367-1.735-7.321-.552-10.615,1.239a6.8,6.8,0,0,0,.433,1.177A11.405,11.405,0,0,1,456.612,2599.8Z" transform="translate(-447.019 -2598.802)"/></clipPath><clipPath id="y"><path class="c" d="M460.612,2614.777a27.745,27.745,0,0,1-9.847,5.619,13.115,13.115,0,0,1-10.047-.773,9.85,9.85,0,0,1-3.961-4.048c-.052.047-.109.089-.162.135a10.171,10.171,0,0,0,2.628,5.068c5.372,5.375,14.82-.248,19.526-3.879a25.5,25.5,0,0,0,5.881-6.069A26.37,26.37,0,0,1,460.612,2614.777Z" transform="translate(-436.595 -2610.83)"/></clipPath><clipPath id="aa"><path class="a" d="M440.156,2595.519c-.521,1.759,1.294,4.083,2.453,5.432-2.2-.638-6.511-1.666-8.293.475a2.17,2.17,0,0,0,.028,2.865c.892,1.285,2.424,1.5,3.864,1.587a36.264,36.264,0,0,1,5.246.5c.468.1.934.2,1.4.3a16.915,16.915,0,0,1,1.288-1.371,42.4,42.4,0,0,0-4.934-.94c-1.173-.123-2.362-.031-3.538-.137-1.22-.11-3.439-1.379-1.318-2.18,2.253-.851,5.327.211,7.475.945.431.148.867.309,1.3.476a17.757,17.757,0,0,0,1.658,1.257,14.911,14.911,0,0,1,1.641-1.22c.082-.053.169-.105.252-.157a23.537,23.537,0,0,0-2.654-1.249c-.557-.486-1.09-.993-1.6-1.508-1.117-1.136-2.49-2.842-2.714-4.476-.123-.895,1.442-.41,1.889-.31a5.512,5.512,0,0,1,3.351,2.635,34.2,34.2,0,0,1,1.979,3.569,8.633,8.633,0,0,1,.4.943c.446-.262.906-.52,1.383-.765a4.67,4.67,0,0,0-.288-.749c-.442-.812-.847-1.643-1.288-2.456a11.249,11.249,0,0,0-3.147-3.9C444.5,2594.015,440.87,2593.107,440.156,2595.519Z" transform="translate(-433.788 -2593.991)"/></clipPath><clipPath id="ac"><path class="a" d="M439.138,2610.259a16.477,16.477,0,0,1,4.666-5.042c-2.887,1.73-5.445,3.987-6.128,7.473a6.826,6.826,0,0,0,.1,3.132.83.83,0,0,0-.41.211,13.081,13.081,0,0,1-3.739,2.1c-.949.423-1.776.976-2.673,1.484-.913.517,0,1.871.9,1.359,2.066-1.169,4.491-2.006,6.342-3.538A10.178,10.178,0,0,1,439.138,2610.259Z" transform="translate(-430.58 -2605.217)"/></clipPath><clipPath id="ae"><path class="a" d="M458.885,2611.057a14.294,14.294,0,0,1-1.04,1.565,10.621,10.621,0,0,0,2.169-3.5,7.987,7.987,0,0,0,.385-3.908,10.8,10.8,0,0,1-.536,1.65A8.006,8.006,0,0,1,458.885,2611.057Z" transform="translate(-457.845 -2605.217)"/></clipPath><clipPath id="ag"><path class="a" d="M448.853,2601.629q.685-.4,1.418-.771a6.173,6.173,0,0,0,.442,1.119,12.321,12.321,0,0,1,9.366-2.158,9.265,9.265,0,0,1,7.323,7.605,11.108,11.108,0,0,1-.5,1.654,8.453,8.453,0,0,1-.918,4.195,14.469,14.469,0,0,1-.975,1.569,25.952,25.952,0,0,1-4.091,3.723,28.838,28.838,0,0,1-10.025,5.3c-3.344.869-7.1.928-10.229-.729a9.68,9.68,0,0,1-4.033-3.82c-.053.046-.111.085-.165.128a9.858,9.858,0,0,1,.945-7.094,16.425,16.425,0,0,1,4.719-4.986c.032-.019.062-.038.095-.056l0-.018c.322-.23.648-.457.98-.676a.705.705,0,0,1,.2.063c.732-.343,1.529-.651,2.342-.959-.5-.108-1-.22-1.495-.33a17.1,17.1,0,0,1,1.322-1.386c.89.2,1.782.395,2.681.545a1.311,1.311,0,1,1-.336-2.36c.084-.053.173-.106.259-.159.376.2.747.416,1.107.643A10.247,10.247,0,0,1,448.853,2601.629Zm-8.244,19.564a51.327,51.327,0,0,0-2.767-7.342,5.471,5.471,0,0,0-.207.728A6.1,6.1,0,0,0,440.609,2621.193Zm3.855,1.465A33.17,33.17,0,0,0,440.2,2610.6a9.64,9.64,0,0,0-1.437,1.538.972.972,0,0,1,.074.108,60.651,60.651,0,0,1,3.817,9.93,11.667,11.667,0,0,0,1.73.466C444.409,2622.652,444.437,2622.653,444.464,2622.658Zm3.389-.493c.267-.8-.288-2.171-.513-2.927-.413-1.384-.9-2.747-1.437-4.089a43.187,43.187,0,0,0-2.982-6.422c-.479.269-.958.563-1.422.879a34.92,34.92,0,0,1,4.641,13.235,13.3,13.3,0,0,0,1.743-.054A.828.828,0,0,1,447.853,2622.165Zm5.372-.836a.75.75,0,0,1-.424-.327,49.16,49.16,0,0,1-6.273-13.94c-.513.2-1.015.4-1.482.607-.219.1-.443.2-.669.309a45.222,45.222,0,0,1,3.348,7.35c.757,1.994,2.218,4.977,1.683,7.229A19.1,19.1,0,0,0,453.225,2621.329Zm-1.864-16.14c1.557,2.659,3.315,5.212,4.98,7.8.835,1.3,1.685,2.6,2.47,3.929.144.243.35.537.495.844a33.09,33.09,0,0,0,3.841-3.312,8.066,8.066,0,0,0,2.586-7.218c-1.173-5.859-7.9-7.162-12.663-4.81a.834.834,0,0,1-.113.728,6.417,6.417,0,0,1-1.35,1.405A.885.885,0,0,1,451.361,2605.188Zm-1.226,1.224c-.522-.036-1.041-.1-1.555-.169-.174.074-.35.143-.525.214a47.811,47.811,0,0,0,6.106,13.64.748.748,0,0,1,.054.775l.008,0a32.707,32.707,0,0,0,3.69-2.123.733.733,0,0,1,.008-.673c-.26.533.005.553-.369-.082-.277-.471-.562-.935-.852-1.4-.819-1.308-1.656-2.605-2.492-3.9-1.346-2.084-2.749-4.147-4.02-6.281C450.169,2606.409,450.154,2606.413,450.135,2606.413Z" transform="translate(-436.194 -2599.604)"/></clipPath><clipPath id="ai"><path class="a" d="M453.706,2604.983a.841.841,0,0,0,.6.74.618.618,0,0,0,.152.013c.48.351,1.12-.109,1.094-.771-.009-.248-.02-.495-.029-.742a.824.824,0,0,0-.148-.442,1.244,1.244,0,0,0-.467-.466.989.989,0,0,0-1.3.46.942.942,0,0,0,.069,1.174Z" transform="translate(-453.434 -2603.212)"/></clipPath><clipPath id="ak"><path class="a" d="M423.1,2622.72c1.99.471,4.311-.732,6.009-1.731.784-.46,0-1.694-.772-1.239-1.372.806-3.384,1.881-4.99,1.5C422.48,2621.044,422.234,2622.513,423.1,2622.72Z" transform="translate(-422.562 -2619.651)"/></clipPath><clipPath id="am"><path class="a" d="M420.625,2621.724a11.745,11.745,0,0,0-5.867-.194c-.888.136-.788,1.311.112,1.173a10.442,10.442,0,0,1,5.14.081C420.838,2623.1,421.454,2622.043,420.625,2621.724Z" transform="translate(-414.142 -2621.255)"/></clipPath><clipPath id="ao"><path class="a" d="M409.5,2624.563a16.468,16.468,0,0,0-3.987,2.934.715.715,0,0,0,1.055.964,15.329,15.329,0,0,1,3.715-2.683C411.075,2625.315,410.283,2624.107,409.5,2624.563Z" transform="translate(-405.321 -2624.462)"/></clipPath><clipPath id="aq"><path class="a" d="M404.567,2631.5a.629.629,0,1,0-1.249.111c.09,2.074.2,4.233,1.461,5.884a.65.65,0,0,0,1.041-.779C404.691,2635.241,404.646,2633.344,404.567,2631.5Z" transform="translate(-403.316 -2630.877)"/></clipPath><clipPath id="as"><path class="a" d="M415.1,2636.089c-.927,1.865-4.081,1.38-5.566.641-.826-.41-1.443.935-.616,1.346,2.249,1.116,6.125,1.344,7.458-1.338A.716.716,0,0,0,415.1,2636.089Z" transform="translate(-408.528 -2635.689)"/></clipPath><clipPath id="au"><path class="a" d="M424.964,2632.928c.822.335,1.426-.979.6-1.317-2.516-1.025-5.355.445-6.868,2.658-.517.757.516,1.724,1.036.962C420.845,2633.6,423.023,2632.137,424.964,2632.928Z" transform="translate(-418.552 -2631.278)"/></clipPath><clipPath id="aw"><path class="a" d="M428.572,2641.134c1.85-1.789.9-4.4-.21-6.3-.482-.826-1.761,0-1.286.813.77,1.324,1.636,3.269.33,4.533C426.707,2640.852,427.88,2641.8,428.572,2641.134Z" transform="translate(-426.972 -2634.486)"/></clipPath><clipPath id="ay"><path class="a" d="M429.692,2651.047c.92.33,1.6-1.061.665-1.394-2.471-.884-2.521-4.515-1.983-6.671.241-.967-1.267-1.242-1.507-.277C426.167,2645.508,426.555,2649.925,429.692,2651.047Z" transform="translate(-426.571 -2642.104)"/></clipPath><clipPath id="ba"><path class="a" d="M437.869,2644.292c-.16,2.3-1.986,3.613-4.222,3.773a.731.731,0,0,0,.119,1.458c2.842-.2,5.362-2.037,5.566-4.968C439.4,2643.626,437.935,2643.351,437.869,2644.292Z" transform="translate(-432.986 -2643.708)"/></clipPath><clipPath id="bc"><path class="a" d="M438.9,2635.7a9.726,9.726,0,0,0-.484,5.8c.168.946,1.646.839,1.476-.119a8.425,8.425,0,0,1,.343-5.031A.744.744,0,0,0,438.9,2635.7Z" transform="translate(-438.198 -2635.288)"/></clipPath><clipPath id="be"><path class="a" d="M448.765,2626.913a20.71,20.71,0,0,0-6.673,3.81c-.734.624.094,1.892.832,1.265a19.61,19.61,0,0,1,6.331-3.636A.761.761,0,0,0,448.765,2626.913Z" transform="translate(-441.807 -2626.868)"/></clipPath><clipPath id="bg"><path class="a" d="M457.895,2629.869a19.162,19.162,0,0,0-5.251-2.968c-.9-.268-1.149,1.161-.261,1.428a16.943,16.943,0,0,1,4.556,2.631C457.7,2631.484,458.665,2630.4,457.895,2629.869Z" transform="translate(-451.831 -2626.868)"/></clipPath><clipPath id="bi"><path class="a" d="M457.344,2633.854c-.224,2.1-1.158,4.055-1.1,6.2.025.921,1.582.806,1.557-.112-.054-2,.869-3.858,1.081-5.83C458.979,2633.2,457.443,2632.936,457.344,2633.854Z" transform="translate(-456.241 -2633.284)"/></clipPath><clipPath id="bk"><path class="a" d="M465.158,2642.99c-1.846.96-4.986.976-5.892-1.238-.348-.85-1.715-.384-1.364.471,1.29,3.15,5.359,3.358,8.062,1.949C466.79,2643.743,465.972,2642.564,465.158,2642.99Z" transform="translate(-457.845 -2641.302)"/></clipPath><clipPath id="bm"><path class="a" d="M469.182,2640.471a29.734,29.734,0,0,0-.88-6.719c-.243-.879-1.445-.406-1.2.47a28.194,28.194,0,0,1,.811,6.363A.64.64,0,1,0,469.182,2640.471Z" transform="translate(-467.067 -2633.283)"/></clipPath><clipPath id="bo"><path class="a" d="M471.236,2630.537a10.415,10.415,0,0,1,2.673-4.107c.628-.65-.4-1.594-1.017-.951a11.842,11.842,0,0,0-2.986,4.8C469.647,2631.164,470.979,2631.416,471.236,2630.537Z" transform="translate(-469.873 -2625.264)"/></clipPath><clipPath id="bq"><path class="a" d="M452.338,2609.1c.011-.124.018-.243.021-.355a1.106,1.106,0,0,0-.529-.325,4.516,4.516,0,0,1,.456,1.057C452.309,2609.358,452.327,2609.233,452.338,2609.1Z" transform="translate(-451.83 -2608.425)"/></clipPath><clipPath id="bs"><path class="a" d="M440.872,2604.986c-.037.026-.073.054-.109.08l.1-.062Z" transform="translate(-440.763 -2604.986)"/></clipPath><clipPath id="bu"><path class="a" d="M441,2605.345q.521-.267,1.058-.521A.98.98,0,0,0,441,2605.345Z" transform="translate(-441.005 -2604.816)"/></clipPath></defs><g transform="translate(-426.723 -2777.837)"><g transform="translate(469.041 2785.242)"><g class="d"><g transform="translate(-207.884 -66.121)"><g class="e"><rect class="f" width="16.398" height="8.992" transform="translate(205.24 63.476)"/></g></g></g></g><g transform="translate(475.389 2779.423)"><g class="g"><g transform="translate(-214.232 -60.302)"><g class="e"><rect class="f" width="13.224" height="13.224" transform="translate(211.587 57.658)"/></g></g></g></g><g transform="translate(471.686 2798.995)"><g class="h"><g transform="translate(-210.529 -79.874)"><g class="e"><rect class="i" width="7.935" height="12.695" transform="translate(207.884 77.229)"/></g></g></g></g><g transform="translate(482.264 2787.358)"><g class="j"><g transform="translate(-221.108 -68.238)"><g class="e"><rect class="i" width="6.348" height="6.348" transform="translate(218.464 65.592)"/></g></g></g></g><g transform="translate(479.62 2788.944)"><g class="k"><g transform="translate(-218.464 -69.823)"><g class="e"><rect class="i" width="7.935" height="6.348" transform="translate(215.819 67.179)"/></g></g></g></g><g transform="translate(476.975 2790.531)"><path class="l" d="M444.051,2604.019c-.518-.133-1.037-.27-1.557-.406-.321.446-.631.9-.923,1.377-.057.042-.11.089-.165.132a.666.666,0,0,1,.21.077C442.376,2604.778,443.206,2604.4,444.051,2604.019Z" transform="translate(-441.406 -2603.613)"/><g class="m"><g transform="translate(-215.819 -71.411)"><g class="e"><rect class="n" width="7.935" height="6.877" transform="translate(213.174 68.766)"/></g></g></g></g><g transform="translate(481.735 2792.118)"><g class="o"><g transform="translate(-220.579 -72.997)"><g class="e"><rect class="i" width="15.34" height="20.101" transform="translate(217.935 70.353)"/></g></g></g></g><g transform="translate(475.388 2793.706)"><g class="p"><g transform="translate(-214.232 -74.585)"><g class="e"><rect class="i" width="11.637" height="20.101" transform="translate(211.587 71.94)"/></g></g></g></g><g transform="translate(478.562 2792.647)"><g class="q"><g transform="translate(-217.406 -73.527)"><g class="e"><rect class="i" width="13.753" height="21.159" transform="translate(214.761 70.882)"/></g></g></g></g><g transform="translate(473.272 2796.351)"><g class="r"><g transform="translate(-212.116 -77.23)"><g class="e"><rect class="i" width="10.579" height="17.456" transform="translate(209.471 74.584)"/></g></g></g></g><g transform="translate(485.967 2786.829)"><g class="s"><g transform="translate(-224.811 -67.708)"><g class="e"><rect class="i" width="19.572" height="21.688" transform="translate(222.167 65.063)"/></g></g></g></g><g transform="translate(484.38 2784.184)"><g class="t"><g transform="translate(-223.224 -65.063)"><g class="e"><rect class="i" width="22.217" height="14.282" transform="translate(220.58 62.418)"/></g></g></g></g><g transform="translate(470.628 2800.053)"><path class="l" d="M460.612,2614.777a27.745,27.745,0,0,1-9.847,5.619,13.115,13.115,0,0,1-10.047-.773,9.85,9.85,0,0,1-3.961-4.048c-.052.047-.109.089-.162.135a10.171,10.171,0,0,0,2.628,5.068c5.372,5.375,14.82-.248,19.526-3.879a25.5,25.5,0,0,0,5.881-6.069A26.37,26.37,0,0,1,460.612,2614.777Z" transform="translate(-436.595 -2610.83)"/><g class="u"><g transform="translate(-209.472 -80.932)"><g class="e"><rect class="i" width="33.325" height="17.456" transform="translate(206.826 78.287)"/></g></g></g></g><g transform="translate(466.924 2777.837)"><g class="v"><g transform="translate(-205.768 -58.716)"><g class="e"><rect class="w" width="22.217" height="17.985" transform="translate(203.124 56.071)"/></g></g></g></g><g transform="translate(462.693 2792.647)"><g class="x"><g transform="translate(-201.537 -73.527)"><g class="e"><rect class="w" width="18.514" height="21.159" transform="translate(198.892 70.882)"/></g></g></g></g><g transform="translate(498.663 2792.647)"><g class="y"><g transform="translate(-237.507 -73.527)"><g class="e"><rect class="w" width="7.935" height="12.695" transform="translate(234.862 70.882)"/></g></g></g></g><g transform="translate(470.098 2785.242)"><g class="z"><g transform="translate(-208.942 -66.121)"><g class="e"><rect class="w" width="36.499" height="30.151" transform="translate(206.297 63.476)"/></g></g></g></g><g transform="translate(492.844 2790.002)"><g class="aa"><g transform="translate(-231.687 -70.882)"><g class="e"><rect class="w" width="7.406" height="7.935" transform="translate(229.043 68.237)"/></g></g></g></g><g transform="translate(452.114 2811.69)"><g class="ab"><g transform="translate(-190.957 -92.569)"><g class="e"><rect class="w" width="12.166" height="8.463" transform="translate(188.313 89.925)"/></g></g></g></g><g transform="translate(441.005 2813.806)"><g class="ac"><g transform="translate(-179.849 -94.685)"><g class="e"><rect class="w" width="12.166" height="6.877" transform="translate(177.204 92.04)"/></g></g></g></g><g transform="translate(429.368 2818.038)"><g class="ad"><g transform="translate(-168.212 -98.917)"><g class="e"><rect class="w" width="10.579" height="9.521" transform="translate(165.567 96.272)"/></g></g></g></g><g transform="translate(426.723 2826.501)"><g class="ae"><g transform="translate(-165.567 -107.38)"><g class="e"><rect class="w" width="7.935" height="12.166" transform="translate(162.922 104.736)"/></g></g></g></g><g transform="translate(433.599 2832.849)"><g class="af"><g transform="translate(-172.443 -113.728)"><g class="e"><rect class="w" width="13.224" height="8.463" transform="translate(169.799 111.083)"/></g></g></g></g><g transform="translate(446.824 2827.031)"><g class="ag"><g transform="translate(-185.668 -107.91)"><g class="e"><rect class="w" width="12.695" height="9.521" transform="translate(183.023 105.265)"/></g></g></g></g><g transform="translate(457.933 2831.262)"><g class="ah"><g transform="translate(-196.776 -112.141)"><g class="e"><rect class="w" width="7.935" height="12.166" transform="translate(194.131 109.496)"/></g></g></g></g><g transform="translate(457.403 2841.313)"><g class="ai"><g transform="translate(-196.247 -122.192)"><g class="e"><rect class="w" width="9.521" height="14.282" transform="translate(193.602 119.547)"/></g></g></g></g><g transform="translate(465.867 2843.429)"><g class="aj"><g transform="translate(-204.711 -124.308)"><g class="e"><rect class="w" width="11.637" height="11.108" transform="translate(202.066 121.663)"/></g></g></g></g><g transform="translate(472.743 2832.32)"><g class="ak"><g transform="translate(-211.587 -113.199)"><g class="e"><rect class="w" width="7.406" height="12.166" transform="translate(208.942 110.554)"/></g></g></g></g><g transform="translate(477.504 2821.212)"><g class="al"><g transform="translate(-216.348 -102.091)"><g class="e"><rect class="w" width="13.224" height="10.579" transform="translate(213.703 99.446)"/></g></g></g></g><g transform="translate(490.728 2821.212)"><g class="am"><g transform="translate(-229.572 -102.091)"><g class="e"><rect class="w" width="11.637" height="9.521" transform="translate(226.927 99.446)"/></g></g></g></g><g transform="translate(496.547 2829.676)"><g class="an"><g transform="translate(-235.391 -110.555)"><g class="e"><rect class="w" width="7.935" height="12.695" transform="translate(232.746 107.909)"/></g></g></g></g><g transform="translate(498.663 2840.255)"><g class="ao"><g transform="translate(-237.507 -121.134)"><g class="e"><rect class="w" width="13.753" height="8.992" transform="translate(234.862 118.489)"/></g></g></g></g><g transform="translate(510.83 2829.675)"><g class="ap"><g transform="translate(-249.673 -110.554)"><g class="e"><rect class="w" width="7.406" height="13.224" transform="translate(247.028 107.909)"/></g></g></g></g><g transform="translate(514.532 2819.096)"><g class="aq"><g transform="translate(-253.375 -99.975)"><g class="e"><rect class="w" width="9.521" height="11.108" transform="translate(250.731 97.33)"/></g></g></g></g><g transform="translate(490.728 2796.88)"><g class="ar"><g transform="translate(-229.571 -77.759)"><g class="e"><rect class="f" width="5.819" height="6.348" transform="translate(226.927 75.114)"/></g></g></g></g><g transform="translate(476.127 2792.343)"><g class="as"><g transform="translate(-214.971 -73.222)"><g class="e"><rect class="n" width="5.399" height="5.371" transform="translate(212.326 70.577)"/></g></g></g></g><g transform="translate(476.446 2792.118)"><g class="at"><g transform="translate(-215.29 -72.997)"><g class="e"><rect class="w" width="6.348" height="5.819" transform="translate(212.645 70.353)"/></g></g></g></g></g></svg>