<svg xmlns="http://www.w3.org/2000/svg" xmlns:xlink="http://www.w3.org/1999/xlink" width="236.312" height="58.83" viewBox="0 0 236.312 58.83"><defs><style>.a,.b{fill:none;}.a,.c{clip-rule:evenodd;}.c,.j,.o{fill:#f99f24;}.d{clip-path:url(#a);}.e{clip-path:url(#b);}.f{fill:#f3c182;}.g{clip-path:url(#c);}.h{clip-path:url(#e);}.i{clip-path:url(#g);}.k{clip-path:url(#i);}.l{clip-path:url(#k);}.m{clip-path:url(#m);}.n{fill:#f0a343;}.o{fill-rule:evenodd;}.p{clip-path:url(#o);}.q{clip-path:url(#q);}.r{clip-path:url(#s);}.s{clip-path:url(#u);}.t{clip-path:url(#w);}.u{clip-path:url(#y);}.v{clip-path:url(#aa);}.w{clip-path:url(#ac);}.x{clip-path:url(#ae);}.y{fill:#401f17;}.z{clip-path:url(#ag);}.aa{clip-path:url(#ai);}.ab{clip-path:url(#ak);}.ac{clip-path:url(#am);}.ad{clip-path:url(#ao);}.ae{clip-path:url(#aq);}.af{clip-path:url(#as);}.ag{clip-path:url(#au);}.ah{clip-path:url(#aw);}.ai{clip-path:url(#ay);}.aj{clip-path:url(#ba);}.ak{clip-path:url(#bc);}.al{clip-path:url(#be);}.am{clip-path:url(#bg);}.an{clip-path:url(#bi);}.ao{clip-path:url(#bk);}.ap{clip-path:url(#bm);}.aq{clip-path:url(#bo);}.ar{clip-path:url(#bq);}.as{clip-path:url(#bs);}.at{clip-path:url(#bu);}.au{fill:#512c1e;}</style><clipPath id="a"><path class="a" d="M127.053,57.552c-.346-.142-.692-.277-1.037-.4-1.711-.618-4.161-1.51-5.956-.795-1.691.675.077,1.741,1.051,1.835.937.09,1.884.012,2.819.116a32.015,32.015,0,0,1,3.932.79q.251-.251.514-.486A14.345,14.345,0,0,1,127.053,57.552Z" transform="translate(-119.358 -56.09)"/></clipPath><clipPath id="b"><rect class="b" width="343.533" height="343.533"/></clipPath><clipPath id="c"><path class="a" d="M130.273,57.009a28.2,28.2,0,0,0-1.671-2.96,4.651,4.651,0,0,0-2.832-2.187c-.377-.081-1.7-.484-1.6.259a7.547,7.547,0,0,0,2.293,3.712c.427.427.878.848,1.348,1.251a20.256,20.256,0,0,1,2.242,1.037c.18-.11.365-.221.553-.33A6.937,6.937,0,0,0,130.273,57.009Z" transform="translate(-124.169 -51.68)"/></clipPath><clipPath id="e"><path class="a" d="M136.208,65.464c.009-.1.015-.2.017-.288a.9.9,0,0,0-.429-.265,3.669,3.669,0,0,1,.371.859C136.185,65.668,136.2,65.566,136.208,65.464Z" transform="translate(-135.796 -64.911)"/></clipPath><clipPath id="g"><path class="a" d="M121.458,67.112a5.37,5.37,0,0,0,2.051,5.415,47.139,47.139,0,0,0-1.909-6.012A4.992,4.992,0,0,0,121.458,67.112Z" transform="translate(-121.363 -66.515)"/></clipPath><clipPath id="i"><path class="a" d="M129.9,57.694q-.267.164-.522.33c.292.168.579.343.859.529A9.066,9.066,0,0,1,129.9,57.694Z" transform="translate(-129.381 -57.694)"/></clipPath><clipPath id="k"><path class="a" d="M127.906,58.9q-.271.215-.529.444c.712.151,1.427.3,2.146.414A12.3,12.3,0,0,1,127.906,58.9Z" transform="translate(-127.377 -58.897)"/></clipPath><clipPath id="m"><path class="a" d="M124.818,61.472l-.089.066.085-.051Z" transform="translate(-124.729 -61.472)"/></clipPath><clipPath id="o"><path class="c" d="M127.519,60.43c-.421-.108-.842-.22-1.264-.33-.26.361-.512.733-.75,1.117-.046.034-.089.072-.134.107a.535.535,0,0,1,.17.064C126.159,61.046,126.833,60.738,127.519,60.43Z" transform="translate(-125.372 -60.1)"/></clipPath><clipPath id="q"><path class="a" d="M128.98,61.479a39.175,39.175,0,0,0,5.05,11.21.613.613,0,0,1,.045.637l.006,0a27.1,27.1,0,0,0,3.051-1.745.6.6,0,0,1,.006-.553c-.214.437,0,.454-.305-.067-.229-.388-.465-.77-.7-1.15-.678-1.074-1.369-2.141-2.062-3.207-1.113-1.713-2.274-3.409-3.323-5.163-.015,0-.028,0-.043,0-.433-.029-.861-.078-1.287-.138C129.27,61.363,129.125,61.421,128.98,61.479Z" transform="translate(-128.98 -61.303)"/></clipPath><clipPath id="s"><path class="a" d="M128.854,71.454c-.332-1.179-.722-2.339-1.152-3.481a37.754,37.754,0,0,0-2.392-5.469c-.384.229-.769.479-1.141.749a30.948,30.948,0,0,1,3.723,11.268,9.981,9.981,0,0,0,1.4-.046.747.747,0,0,1-.025-.529A5.437,5.437,0,0,0,128.854,71.454Z" transform="translate(-124.169 -62.505)"/></clipPath><clipPath id="u"><path class="a" d="M133.117,73.292A42.349,42.349,0,0,1,128.245,61.7c-.4.166-.787.331-1.15.5-.169.081-.344.167-.519.257a38.923,38.923,0,0,1,2.6,6.111c.588,1.657,1.722,4.137,1.307,6.011a14.148,14.148,0,0,0,2.963-1.022A.588.588,0,0,1,133.117,73.292Z" transform="translate(-126.575 -61.704)"/></clipPath><clipPath id="w"><path class="a" d="M122.565,65.771a.569.569,0,0,1,.056.089A52.341,52.341,0,0,1,125.5,74a8.338,8.338,0,0,0,1.3.381c.02,0,.041.005.061.01a28.763,28.763,0,0,0-3.212-9.877A7.678,7.678,0,0,0,122.565,65.771Z" transform="translate(-122.565 -64.51)"/></clipPath><clipPath id="y"><path class="a" d="M136.169,66.741c-1.331-2.1-2.738-4.163-3.981-6.315a.717.717,0,0,0,.195-.511,5.13,5.13,0,0,0,1.08-1.137.677.677,0,0,0,.091-.59c3.811-1.9,9.186-.848,10.124,3.894a6.579,6.579,0,0,1-2.068,5.842,26.654,26.654,0,0,1-3.07,2.68c-.117-.248-.282-.487-.4-.683C137.516,68.844,136.837,67.794,136.169,66.741Zm1.87-5.577.029.027a.693.693,0,0,0,.54.583.675.675,0,0,0,.137.011.661.661,0,0,0,.99-.607c-.01-.195-.018-.391-.028-.586a.6.6,0,0,0-.133-.348,1.062,1.062,0,0,0-.422-.366.958.958,0,0,0-1.175.362A.671.671,0,0,0,138.039,61.165Zm-1.556,3.99a3.294,3.294,0,0,1,.634.871,2.133,2.133,0,0,0,.071-.311c.015-.1.025-.2.03-.293A1.939,1.939,0,0,0,136.483,65.154Z" transform="translate(-132.188 -57.293)"/></clipPath><clipPath id="aa"><path class="a" d="M138.772,56.1a7.687,7.687,0,0,1,5.816,6.492c.021-.1.043-.206.06-.311.507-3.049-1.5-5.3-4.115-6.089a7.841,7.841,0,0,0-.931-.211c-2.733-1.409-5.943-.448-8.617,1.006a5.5,5.5,0,0,0,.351.954A9.258,9.258,0,0,1,138.772,56.1Z" transform="translate(-130.985 -55.288)"/></clipPath><clipPath id="ac"><path class="c" d="M140.058,70.52a22.486,22.486,0,0,1-7.994,4.561,10.646,10.646,0,0,1-8.156-.627,8,8,0,0,1-3.215-3.287c-.042.04-.089.073-.132.11a8.256,8.256,0,0,0,2.133,4.113c4.361,4.364,12.031-.2,15.851-3.148a20.72,20.72,0,0,0,4.775-4.927A21.336,21.336,0,0,1,140.058,70.52Z" transform="translate(-120.561 -67.317)"/></clipPath><clipPath id="ae"><path class="a" d="M122.924,51.718c-.423,1.427,1.051,3.315,1.991,4.408-1.784-.518-5.285-1.352-6.732.386a1.763,1.763,0,0,0,.022,2.327,3.784,3.784,0,0,0,3.137,1.288,29.2,29.2,0,0,1,4.258.409c.379.078.758.162,1.135.246a13.9,13.9,0,0,1,1.046-1.114,34.161,34.161,0,0,0-4.006-.763c-.952-.1-1.917-.025-2.872-.111-.991-.09-2.792-1.119-1.07-1.769,1.829-.691,4.325.17,6.068.766.35.12.7.251,1.056.388A14.814,14.814,0,0,0,128.3,59.2a11.975,11.975,0,0,1,1.332-.992c.066-.043.137-.085.2-.127a19.29,19.29,0,0,0-2.155-1.014c-.452-.394-.885-.806-1.3-1.224a7.411,7.411,0,0,1-2.2-3.633c-.1-.727,1.171-.333,1.534-.253a4.48,4.48,0,0,1,2.72,2.14,27.544,27.544,0,0,1,1.607,2.9,6.99,6.99,0,0,1,.324.765c.362-.213.736-.422,1.122-.62a3.727,3.727,0,0,0-.233-.608c-.359-.659-.688-1.333-1.045-1.993a9.135,9.135,0,0,0-2.554-3.169C126.451,50.5,123.5,49.759,122.924,51.718Z" transform="translate(-117.754 -50.477)"/></clipPath><clipPath id="ag"><path class="a" d="M121.494,65.8a13.371,13.371,0,0,1,3.788-4.093c-2.343,1.4-4.42,3.237-4.975,6.066a5.542,5.542,0,0,0,.085,2.543.666.666,0,0,0-.333.171,10.638,10.638,0,0,1-3.035,1.7c-.77.343-1.442.791-2.17,1.2s0,1.519.734,1.1c1.677-.95,3.645-1.63,5.148-2.874A8.259,8.259,0,0,1,121.494,65.8Z" transform="translate(-114.546 -61.704)"/></clipPath><clipPath id="ai"><path class="a" d="M124.971,61.732q.423-.217.859-.423A.8.8,0,0,0,124.971,61.732Z" transform="translate(-124.971 -61.303)"/></clipPath><clipPath id="ak"><path class="a" d="M142.655,66.444a11.571,11.571,0,0,1-.844,1.271,8.636,8.636,0,0,0,1.761-2.839,6.472,6.472,0,0,0,.312-3.172,8.6,8.6,0,0,1-.434,1.339A6.5,6.5,0,0,1,142.655,66.444Z" transform="translate(-141.811 -61.704)"/></clipPath><clipPath id="am"><path class="a" d="M130.435,57.734c.372-.214.755-.425,1.152-.625a5,5,0,0,0,.359.907,10.008,10.008,0,0,1,7.6-1.752,7.523,7.523,0,0,1,5.945,6.175,9.028,9.028,0,0,1-.407,1.341,6.865,6.865,0,0,1-.745,3.407,11.761,11.761,0,0,1-.791,1.272,21.089,21.089,0,0,1-3.321,3.023,23.427,23.427,0,0,1-8.139,4.3,11.61,11.61,0,0,1-8.3-.591,7.859,7.859,0,0,1-3.274-3.1c-.043.036-.09.067-.134.1a8,8,0,0,1,.767-5.758,13.342,13.342,0,0,1,3.831-4.048l.076-.046,0-.013q.392-.283.8-.551a.567.567,0,0,1,.163.052c.594-.278,1.241-.528,1.9-.78q-.607-.132-1.213-.268a13.976,13.976,0,0,1,1.073-1.123c.723.162,1.447.319,2.176.442a12.208,12.208,0,0,1-1.64-.917,12.4,12.4,0,0,1,1.367-1l.21-.129c.305.166.606.338.9.523A8.634,8.634,0,0,1,130.435,57.734Zm-6.692,15.883a41.679,41.679,0,0,0-2.246-5.96,4.444,4.444,0,0,0-.168.591A4.954,4.954,0,0,0,123.744,73.617Zm3.13,1.19a26.934,26.934,0,0,0-3.462-9.787,7.857,7.857,0,0,0-1.166,1.25.684.684,0,0,1,.06.087,49.209,49.209,0,0,1,3.1,8.063,9.513,9.513,0,0,0,1.4.377Zm2.751-.4a4.926,4.926,0,0,0-.417-2.377c-.335-1.123-.73-2.229-1.166-3.318a34.955,34.955,0,0,0-2.42-5.214c-.39.218-.779.456-1.155.713a28.351,28.351,0,0,1,3.768,10.744,10.573,10.573,0,0,0,1.415-.045A.671.671,0,0,1,129.625,74.405Zm4.361-.678a.617.617,0,0,1-.344-.266,39.921,39.921,0,0,1-5.093-11.316c-.417.163-.824.323-1.2.492-.178.079-.36.164-.544.251a36.643,36.643,0,0,1,2.719,5.968c.615,1.618,1.8,4.04,1.367,5.869A15.591,15.591,0,0,0,133.986,73.727Zm-1.513-13.1c1.263,2.158,2.691,4.229,4.043,6.333.678,1.056,1.368,2.109,2,3.189.117.2.284.436.4.687a26.856,26.856,0,0,0,3.118-2.688,6.549,6.549,0,0,0,2.1-5.861c-.952-4.756-6.41-5.813-10.28-3.9a.676.676,0,0,1-.092.591,5.224,5.224,0,0,1-1.1,1.142A.719.719,0,0,1,132.472,60.625Zm-.995.993c-.425-.028-.845-.077-1.263-.137-.141.06-.284.117-.426.175a38.813,38.813,0,0,0,4.957,11.072.609.609,0,0,1,.044.63l.006,0a26.719,26.719,0,0,0,3-1.723.592.592,0,0,1,.006-.546c-.211.432,0,.449-.3-.067q-.337-.572-.692-1.135c-.665-1.061-1.344-2.114-2.023-3.167-1.092-1.692-2.232-3.367-3.263-5.1C131.505,61.615,131.492,61.619,131.477,61.617Z" transform="translate(-120.16 -56.09)"/></clipPath><clipPath id="ao"><path class="a" d="M137.621,61.136a.681.681,0,0,0,.485.6.55.55,0,0,0,.123.012c.39.285.909-.09.888-.625-.008-.2-.016-.4-.024-.6a.667.667,0,0,0-.12-.359,1,1,0,0,0-.379-.378.8.8,0,0,0-1.055.374.763.763,0,0,0,.056.952Z" transform="translate(-137.4 -59.699)"/></clipPath><clipPath id="aq"><path class="a" d="M106.967,78.628c1.615.382,3.5-.594,4.878-1.4.636-.375,0-1.375-.627-1.006-1.114.654-2.747,1.526-4.051,1.218C106.462,77.268,106.261,78.461,106.967,78.628Z" transform="translate(-106.528 -76.138)"/></clipPath><clipPath id="as"><path class="a" d="M103.371,78.122a9.514,9.514,0,0,0-4.763-.157c-.721.111-.639,1.064.091.951a8.5,8.5,0,0,1,4.173.065C103.543,79.24,104.044,78.381,103.371,78.122Z" transform="translate(-98.108 -77.741)"/></clipPath><clipPath id="au"><path class="a" d="M92.679,81.031a13.341,13.341,0,0,0-3.237,2.382.58.58,0,0,0,.857.782,12.4,12.4,0,0,1,3.016-2.177C93.957,81.642,93.315,80.66,92.679,81.031Z" transform="translate(-89.287 -80.949)"/></clipPath><clipPath id="aw"><path class="a" d="M88.3,87.868a.51.51,0,1,0-1.014.089c.073,1.685.16,3.437,1.186,4.777a.527.527,0,0,0,.844-.633C88.4,90.906,88.362,89.366,88.3,87.868Z" transform="translate(-87.282 -87.364)"/></clipPath><clipPath id="ay"><path class="a" d="M97.831,92.5c-.753,1.514-3.313,1.12-4.519.522-.67-.333-1.172.758-.5,1.091,1.826.907,4.973,1.092,6.054-1.086A.581.581,0,0,0,97.831,92.5Z" transform="translate(-92.494 -92.175)"/></clipPath><clipPath id="ba"><path class="a" d="M107.723,89.1c.667.272,1.158-.794.485-1.068-2.042-.833-4.347.361-5.576,2.158-.42.615.419,1.4.841.781C104.379,89.65,106.148,88.462,107.723,89.1Z" transform="translate(-102.518 -87.765)"/></clipPath><clipPath id="bc"><path class="a" d="M112.237,96.37c1.5-1.452.728-3.574-.171-5.119-.39-.669-1.429,0-1.043.661.625,1.075,1.328,2.653.267,3.68C110.723,96.14,111.675,96.914,112.237,96.37Z" transform="translate(-110.938 -90.973)"/></clipPath><clipPath id="be"><path class="a" d="M113.071,105.85c.746.267,1.295-.862.54-1.132C111.6,104,111.564,101.054,112,99.3c.2-.785-1.028-1.008-1.223-.226C110.209,101.354,110.524,104.939,113.071,105.85Z" transform="translate(-110.537 -98.591)"/></clipPath><clipPath id="bg"><path class="a" d="M120.916,100.668a3.367,3.367,0,0,1-3.427,3.064.594.594,0,0,0,.1,1.183,4.551,4.551,0,0,0,4.519-4.034C122.156,100.128,120.969,99.9,120.916,100.668Z" transform="translate(-116.952 -100.194)"/></clipPath><clipPath id="bi"><path class="a" d="M122.736,92.111a7.9,7.9,0,0,0-.393,4.712c.136.768,1.337.68,1.2-.1a6.839,6.839,0,0,1,.278-4.084A.6.6,0,0,0,122.736,92.111Z" transform="translate(-122.164 -91.774)"/></clipPath><clipPath id="bk"><path class="a" d="M131.422,83.391A16.794,16.794,0,0,0,126,86.485c-.6.506.076,1.536.676,1.026a15.919,15.919,0,0,1,5.14-2.951A.618.618,0,0,0,131.422,83.391Z" transform="translate(-125.773 -83.355)"/></clipPath><clipPath id="bm"><path class="a" d="M140.719,85.791a15.554,15.554,0,0,0-4.263-2.409c-.727-.218-.934.941-.212,1.158a13.764,13.764,0,0,1,3.7,2.138C140.563,87.1,141.345,86.219,140.719,85.791Z" transform="translate(-135.796 -83.355)"/></clipPath><clipPath id="bo"><path class="a" d="M141.1,90.233c-.182,1.707-.94,3.293-.893,5.033.02.748,1.284.654,1.264-.092-.044-1.627.706-3.132.877-4.732C142.429,89.7,141.183,89.487,141.1,90.233Z" transform="translate(-140.207 -89.77)"/></clipPath><clipPath id="bq"><path class="a" d="M147.748,99.158c-1.5.781-4.047.794-4.783-1-.283-.691-1.392-.312-1.107.381,1.047,2.558,4.35,2.726,6.545,1.583C149.072,99.769,148.408,98.813,147.748,99.158Z" transform="translate(-141.811 -97.789)"/></clipPath><clipPath id="bs"><path class="a" d="M152.749,95.6a24.08,24.08,0,0,0-.713-5.455c-.2-.713-1.174-.33-.978.381a22.821,22.821,0,0,1,.66,5.165A.519.519,0,1,0,152.749,95.6Z" transform="translate(-151.032 -89.77)"/></clipPath><clipPath id="bu"><path class="a" d="M154.945,86.032a8.459,8.459,0,0,1,2.17-3.335c.51-.527-.322-1.294-.826-.772a9.621,9.621,0,0,0-2.424,3.9C153.656,86.541,154.737,86.744,154.945,86.032Z" transform="translate(-153.839 -81.75)"/></clipPath></defs><g transform="translate(-88.248 -53.707)"><g transform="translate(88.248 53.707)"><g transform="translate(34.353 6.012)"><g class="d"><g transform="translate(-168.761 -53.677)"><g class="e" transform="translate(0)"><rect class="f" width="13.312" height="7.3" transform="translate(166.613 51.53)"/></g></g></g></g><g transform="translate(39.506 1.288)"><g class="g"><g transform="translate(-173.913 -48.954)"><g class="e" transform="translate(0)"><rect class="f" width="10.735" height="10.735" transform="translate(171.766 46.806)"/></g></g></g></g><g transform="translate(51.959 15.459)"><g class="h"><g transform="translate(-186.366 -63.124)"><g class="e" transform="translate(0)"><rect class="f" width="4.724" height="5.153" transform="translate(184.219 60.977)"/></g></g></g></g><g transform="translate(36.5 17.177)"><g class="i"><g transform="translate(-170.908 -64.842)"><g class="e" transform="translate(0)"><rect class="j" width="6.441" height="10.306" transform="translate(168.76 62.695)"/></g></g></g></g><g transform="translate(45.088 7.729)"><g class="k"><g transform="translate(-179.496 -55.395)"><g class="e" transform="translate(0)"><rect class="j" width="5.153" height="5.153" transform="translate(177.349 53.248)"/></g></g></g></g><g transform="translate(42.942 9.018)"><g class="l"><g transform="translate(-177.349 -56.683)"><g class="e" transform="translate(0)"><rect class="j" width="6.441" height="5.153" transform="translate(175.202 54.536)"/></g></g></g></g><g transform="translate(40.106 11.776)"><g class="m"><g transform="translate(-174.513 -59.441)"><g class="e" transform="translate(0)"><rect class="n" width="4.383" height="4.36" transform="translate(172.366 57.294)"/></g></g></g></g><g transform="translate(40.794 10.306)"><path class="o" d="M127.519,60.43c-.421-.108-.842-.22-1.264-.33-.26.361-.512.733-.75,1.117-.046.034-.089.072-.134.107a.535.535,0,0,1,.17.064C126.159,61.046,126.833,60.738,127.519,60.43Z" transform="translate(-125.372 -60.1)"/><g class="p"><g transform="translate(-175.202 -57.971)"><g class="e" transform="translate(0)"><rect class="n" width="6.441" height="5.582" transform="translate(173.055 55.824)"/></g></g></g></g><g transform="translate(44.659 11.595)"><g class="q"><g transform="translate(-179.066 -59.26)"><g class="e" transform="translate(0)"><rect class="j" width="12.453" height="16.318" transform="translate(176.919 57.112)"/></g></g></g></g><g transform="translate(39.506 12.882)"><g class="r"><g transform="translate(-173.913 -60.547)"><g class="e" transform="translate(0)"><rect class="j" width="9.447" height="16.318" transform="translate(171.766 58.401)"/></g></g></g></g><g transform="translate(42.083 12.024)"><g class="s"><g transform="translate(-176.49 -59.689)"><g class="e" transform="translate(0)"><rect class="j" width="11.165" height="17.177" transform="translate(174.343 57.542)"/></g></g></g></g><g transform="translate(37.788 15.029)"><g class="t"><g transform="translate(-172.196 -62.695)"><g class="e" transform="translate(0)"><rect class="j" width="8.588" height="14.171" transform="translate(170.049 60.548)"/></g></g></g></g><g transform="translate(48.094 7.3)"><g class="u"><g transform="translate(-182.502 -54.965)"><g class="e" transform="translate(0)"><rect class="j" width="15.888" height="17.606" transform="translate(180.355 52.818)"/></g></g></g></g><g transform="translate(46.806 5.153)"><g class="v"><g transform="translate(-181.213 -52.818)"><g class="e" transform="translate(0)"><rect class="j" width="18.035" height="11.594" transform="translate(179.066 50.671)"/></g></g></g></g><g transform="translate(35.642 18.036)"><path class="o" d="M140.058,70.52a22.486,22.486,0,0,1-7.994,4.561,10.646,10.646,0,0,1-8.156-.627,8,8,0,0,1-3.215-3.287c-.042.04-.089.073-.132.11a8.256,8.256,0,0,0,2.133,4.113c4.361,4.364,12.031-.2,15.851-3.148a20.72,20.72,0,0,0,4.775-4.927A21.336,21.336,0,0,1,140.058,70.52Z" transform="translate(-120.561 -67.317)"/><g class="w"><g transform="translate(-170.049 -65.701)"><g class="e" transform="translate(0)"><rect class="j" width="27.053" height="14.171" transform="translate(167.902 63.554)"/></g></g></g></g><g transform="translate(32.635)"><g class="x"><g transform="translate(-167.043 -47.665)"><g class="e" transform="translate(0)"><rect class="y" width="18.035" height="14.6" transform="translate(164.896 45.518)"/></g></g></g></g><g transform="translate(29.2 12.024)"><g class="z"><g transform="translate(-163.607 -59.689)"><g class="e" transform="translate(0)"><rect class="y" width="15.03" height="17.177" transform="translate(161.46 57.542)"/></g></g></g></g><g transform="translate(40.365 11.594)"><g class="aa"><g transform="translate(-174.772 -59.26)"><g class="e" transform="translate(0)"><rect class="y" width="5.153" height="4.724" transform="translate(172.625 57.112)"/></g></g></g></g><g transform="translate(58.401 12.024)"><g class="ab"><g transform="translate(-192.808 -59.689)"><g class="e" transform="translate(0)"><rect class="y" width="6.441" height="10.306" transform="translate(190.661 57.542)"/></g></g></g></g><g transform="translate(35.212 6.011)"><g class="ac"><g transform="translate(-169.619 -53.677)"><g class="e" transform="translate(0)"><rect class="y" width="29.63" height="24.477" transform="translate(167.472 51.53)"/></g></g></g></g><g transform="translate(53.676 9.876)"><g class="ad"><g transform="translate(-188.084 -57.542)"><g class="e" transform="translate(0)"><rect class="y" width="6.012" height="6.441" transform="translate(185.937 55.395)"/></g></g></g></g><g transform="translate(20.612 27.483)"><g class="ae"><g transform="translate(-155.019 -75.148)"><g class="e" transform="translate(0)"><rect class="y" width="9.877" height="6.871" transform="translate(152.872 73.001)"/></g></g></g></g><g transform="translate(11.594 29.2)"><g class="af"><g transform="translate(-146.001 -76.865)"><g class="e" transform="translate(0)"><rect class="y" width="9.877" height="5.582" transform="translate(143.854 74.718)"/></g></g></g></g><g transform="translate(2.147 32.636)"><g class="ag"><g transform="translate(-136.554 -80.301)"><g class="e" transform="translate(0)"><rect class="y" width="8.588" height="7.729" transform="translate(134.407 78.154)"/></g></g></g></g><g transform="translate(0 39.506)"><g class="ah"><g transform="translate(-134.407 -87.172)"><g class="e" transform="translate(0)"><rect class="y" width="6.441" height="9.877" transform="translate(132.26 85.024)"/></g></g></g></g><g transform="translate(5.582 44.659)"><g class="ai"><g transform="translate(-139.989 -92.324)"><g class="e" transform="translate(0)"><rect class="y" width="10.735" height="6.871" transform="translate(137.843 90.177)"/></g></g></g></g><g transform="translate(16.318 39.936)"><g class="aj"><g transform="translate(-150.725 -87.601)"><g class="e" transform="translate(0)"><rect class="y" width="10.306" height="7.729" transform="translate(148.578 85.454)"/></g></g></g></g><g transform="translate(25.336 43.371)"><g class="ak"><g transform="translate(-159.743 -91.036)"><g class="e" transform="translate(0)"><rect class="y" width="6.441" height="9.877" transform="translate(157.596 88.889)"/></g></g></g></g><g transform="translate(24.906 51.53)"><g class="al"><g transform="translate(-159.313 -99.195)"><g class="e" transform="translate(0)"><rect class="y" width="7.729" height="11.594" transform="translate(157.166 97.048)"/></g></g></g></g><g transform="translate(31.777 53.247)"><g class="am"><g transform="translate(-166.184 -100.912)"><g class="e" transform="translate(0)"><rect class="y" width="9.447" height="9.018" transform="translate(164.037 98.766)"/></g></g></g></g><g transform="translate(37.359 44.23)"><g class="an"><g transform="translate(-171.766 -91.895)"><g class="e" transform="translate(0)"><rect class="y" width="6.012" height="9.877" transform="translate(169.619 89.748)"/></g></g></g></g><g transform="translate(41.224 35.212)"><g class="ao"><g transform="translate(-175.631 -82.877)"><g class="e" transform="translate(0)"><rect class="y" width="10.735" height="8.588" transform="translate(173.484 80.73)"/></g></g></g></g><g transform="translate(51.959 35.212)"><g class="ap"><g transform="translate(-186.366 -82.877)"><g class="e" transform="translate(0)"><rect class="y" width="9.447" height="7.729" transform="translate(184.219 80.73)"/></g></g></g></g><g transform="translate(56.683 42.083)"><g class="aq"><g transform="translate(-191.09 -89.748)"><g class="e" transform="translate(0)"><rect class="y" width="6.441" height="10.306" transform="translate(188.943 87.601)"/></g></g></g></g><g transform="translate(58.4 50.671)"><g class="ar"><g transform="translate(-192.808 -98.336)"><g class="e" transform="translate(0)"><rect class="y" width="11.165" height="7.3" transform="translate(190.661 96.189)"/></g></g></g></g><g transform="translate(68.276 42.083)"><g class="as"><g transform="translate(-202.684 -89.748)"><g class="e" transform="translate(0)"><rect class="y" width="6.012" height="10.735" transform="translate(200.537 87.601)"/></g></g></g></g><g transform="translate(71.283 33.494)"><g class="at"><g transform="translate(-205.69 -81.159)"><g class="e" transform="translate(0)"><rect class="y" width="7.729" height="9.018" transform="translate(203.543 79.013)"/></g></g></g></g></g><g transform="translate(187.51 67.676)"><g transform="translate(0 1.175)"><path class="au" d="M199.1,67.941a8.246,8.246,0,0,1-2.064,3.652,20.638,20.638,0,0,1-3.805,3.258c-.314,1.781-.608,3.568-.832,5.363q-.169,1.361-.282,2.73c-.088,1.08-.371,2.156-.443,3.228a1.014,1.014,0,1,1-2.027.034,27.705,27.705,0,0,1-.079-3.617c.089-1.043.209-2.084.348-3.121.136-1.009.3-2.01.476-3.007a21.771,21.771,0,0,1-4.017,1.442q-.382,1.862-.6,3.751a14.3,14.3,0,0,1-.26,1.48,10.7,10.7,0,0,1-.6,2.531.889.889,0,0,1-1.45.142,4.946,4.946,0,0,1-.359-2.326,13.792,13.792,0,0,1,.089-2.4c.12-.9.269-1.8.441-2.691a17.525,17.525,0,0,1-3.367.036c-.328-.029-.435-.58-.061-.608a32.723,32.723,0,0,0,3.641-.466c.021-.1.041-.2.063-.295a37.4,37.4,0,0,1,1.158-4.051q.429-1.242.92-2.462a23.669,23.669,0,0,1,1.163-2.244c.491-.931,2.2-.655,1.818.507-.853,2.6-1.7,5.2-2.321,7.861a21.575,21.575,0,0,0,4.025-1.676q.182-.912.381-1.824c.677-3.056,1.648-6.927,5.167-7.8a3.123,3.123,0,0,1,2.628.484C199.465,66.337,199.255,67.249,199.1,67.941Zm-1.316-.931c-1.853-.381-3.078,1.81-3.585,3.3a19.11,19.11,0,0,0-.668,2.82,20.865,20.865,0,0,0,1.648-1.408C196.407,70.553,197.958,68.842,197.782,67.01Z" transform="translate(-179.963 -64.57)"/><path class="au" d="M203.7,77.346a4.739,4.739,0,0,1-1.025,1.862c-1.367,1.67-3.953,3.3-6.263,3.026-.005.04-.012.08-.015.12a2.916,2.916,0,0,0,1.479,2.31,3.183,3.183,0,0,0,3.034-.144c.24-.115.349.29.2.429a4.606,4.606,0,0,1-3.664,1.15,3.725,3.725,0,0,1-3.419-2.86c-.795-2.925.99-6.087,3.4-7.659,1.3-.848,3.2-1.648,4.763-1.053A2.528,2.528,0,0,1,203.7,77.346Zm-2.037.191c-.179-.8-2.107.369-2.341.525a7.47,7.47,0,0,0-2.6,3.027,12.25,12.25,0,0,0,1.318-.4,6.7,6.7,0,0,0,2.5-1.535C200.8,78.894,201.751,77.941,201.661,77.537Z" transform="translate(-178.979 -63.927)"/><path class="au" d="M214.834,75.469a51.139,51.139,0,0,0-1.49,6.951c-.2,1.437-.21,2.891-.318,4.337-.029.392.058,1.514-.379,1.595-.369.066-.964-.645-1.134-.9-1-1.5-.153-3.924.1-5.57.112-.718.247-1.434.4-2.145a25.588,25.588,0,0,1-1.924,2.13,28.431,28.431,0,0,1-2.995,2.586c-.961.716-2.332,1.512-3.372.439-.975-1.006-1.028-2.878-.722-4.151a7.394,7.394,0,0,1,2.1-3.61c1.975-1.925,5.756-3.228,8.461-2.246C214.074,74.507,215.053,74.7,214.834,75.469Zm-2.684,1.619a20.966,20.966,0,0,0-2.148.421,7.844,7.844,0,0,0-2.373,1.128c-1.117.813-2.774,2.841-2.168,4.307.182.439.127.452.558.24a5.34,5.34,0,0,0,.714-.5c.39-.285.776-.576,1.15-.885a21.845,21.845,0,0,0,2.1-2A23.572,23.572,0,0,0,212.15,77.088Z" transform="translate(-178.339 -63.911)"/><path class="au" d="M222.215,80.089a13.84,13.84,0,0,1-1.665,3.518c-.6,1.017-1.415,2.631-2.505,3.188a2.3,2.3,0,0,1-2.536-.38c-1.377-1.223-1-3.833-.909-5.478a34.22,34.22,0,0,1,1.63-8.474,42.577,42.577,0,0,1,1.538-4.093,18.831,18.831,0,0,1,1.25-2.423,2.481,2.481,0,0,1,1.569-1.319.83.83,0,0,1,.977.746,11.333,11.333,0,0,1-1.237,3.873c-.4,1.007-.8,2.01-1.143,3.04a47.8,47.8,0,0,0-1.632,6.43c-.218,1.2-.4,2.4-.574,3.6-.125.864-.744,4.673,1.166,3.287a8.954,8.954,0,0,0,1.934-2.7c.6-1.032.991-2.162,1.567-3.2C221.846,79.333,222.284,79.8,222.215,80.089Z" transform="translate(-177.512 -64.616)"/></g><path class="au" d="M241.7,71.351c.332.094.455.68.043.75a15.99,15.99,0,0,1-2.661.055q-1.393,0-2.786.055c-.334.014-.668.032-1,.052q-.688,1.955-1.254,3.95c-.532,1.857-.949,3.745-1.321,5.64.037-.062.073-.125.111-.187a6.972,6.972,0,0,1,3.421-3.09,2.129,2.129,0,0,1,2.973,1.687,9.344,9.344,0,0,1-.112,2.619c-.127,1.123-.266,2.246-.4,3.368-.114.97-1.8.864-1.656-.191.2-1.551.457-3.1.629-4.654.044-.406.16-1.228-.194-1.556-.454-.421-1.374.252-1.754.548a8.557,8.557,0,0,0-2.145,2.9c-.366.7-.684,1.437-1.011,2.161a20.673,20.673,0,0,0-.931,2.015c-.039.151-.079.3-.12.454l-.013.049c-.015.052-.027.1-.042.157l-.014-.011c-.392.851-1.773,1.084-1.927-.084a23.95,23.95,0,0,1,.305-7.278c-.344.5-.691.995-1.045,1.485-1.121,1.553-2.908,4.966-5.339,4.174-2.732-.891-2.441-5.336-2.207-7.532a29.715,29.715,0,0,1,.818-4.453q-1.243.333-2.482.7a.762.762,0,1,1-.519-1.429q1.735-.554,3.509-.978c.185-.558.383-1.112.6-1.662a27.448,27.448,0,0,1,1.647-3.387,10.526,10.526,0,0,1,2.944-3.712,1.149,1.149,0,0,1,1.773,1.2,27,27,0,0,1-2.136,4.313c-.406.808-.774,1.638-1.112,2.477q1.979-.342,3.971-.569c.77-.089,1.542-.154,2.316-.2q.4-1.011.842-2.008c.427-.968.941-1.867,1.449-2.793a10.706,10.706,0,0,1,1.8-2.571c.563-.551,1.83-.33,1.556.659-.59,2.122-1.58,4.189-2.371,6.247-.043.114-.084.228-.126.343l.411-.007a20.058,20.058,0,0,1,5.557.3Zm-9.633,1.2q-.893.1-1.783.216c-1.543.2-3.07.474-4.585.8a31.1,31.1,0,0,0-1.523,6.9c-.073.72-.242,1.466-.254,2.183-.009.451.005,1.282.392,1.566.858.628,1.842-.991,2.241-1.475.443-.538.861-1.089,1.27-1.654q1.277-1.758,2.455-3.585c.165-.255.323-.511.483-.766.153-.568.313-1.13.477-1.681Q231.614,73.783,232.067,72.546Z" transform="translate(-177.226 -63.52)"/><path class="au" d="M309.089,73.337c-.022,1.328-1.088,2.3-2.015,3.112a17.457,17.457,0,0,1-2.468,1.81c-.093.493-.163.989-.218,1.48a15.579,15.579,0,0,0-.109,2.3,3.383,3.383,0,0,0,.263,1.357c.245.516.855,1.193,1.487,1.074.4-.074.753.54.389.794a2.616,2.616,0,0,1-2.95-.01,3.761,3.761,0,0,1-1.45-3.055,15.192,15.192,0,0,1,0-2.083c-.025.033-.048.067-.073.1a27.389,27.389,0,0,1-3.5,4.106,4.731,4.731,0,0,1-4.13,1.456c-2.226-.534-2.958-3.262-2.732-5.263a12.7,12.7,0,0,1,3.6-7.813c1.143-1.083,3.54-2.574,4.718-.653.909,1.483-.012,3.448-.806,4.776a10.217,10.217,0,0,1-2.538,2.818,7.58,7.58,0,0,1-2.416,1.33,3.072,3.072,0,0,0,.5,2.3c1.29,1.593,2.853,0,3.825-1.042a34.839,34.839,0,0,0,4.116-5.4,13.257,13.257,0,0,1,.955-2.49c.606-1.181,1.524-2.626,2.876-2.99A2.045,2.045,0,0,1,309.089,73.337Zm-14.8,6.74c.135-.065.269-.133.4-.207a8.553,8.553,0,0,0,1.78-1.346,8.038,8.038,0,0,0,1.75-2.606,5.188,5.188,0,0,0,.44-1.629q.239-.659-.418-.711a3.1,3.1,0,0,0-.285.174c-.673.164-1.57,1.429-1.986,2.076a11.647,11.647,0,0,0-1.442,3.278C294.45,79.4,294.363,79.734,294.289,80.077Zm12.864-6.8c-.589.12-1.187,1.276-1.456,1.765a9.636,9.636,0,0,0-.817,2.046,17.881,17.881,0,0,0,2.23-2.123,1.982,1.982,0,0,0,.58-1.087C307.7,73.547,307.552,73.192,307.153,73.273Z" transform="translate(-172.04 -62.98)"/><g transform="translate(62.558 1.889)"><path class="au" d="M249.134,76.351a24.084,24.084,0,0,1-.858,4.867c-.367,1.536-.756,3.064-1.248,4.567-.832,2.542-2.136,5.677-4.456,7.213-1.1.73-2.736,1.031-3.732-.063-.786-.866-.434-2.238.01-3.177a7.345,7.345,0,0,1,5.465-3.847c.354-1.007.653-2.035.93-3.067.3-1.134.618-2.265.908-3.4l.075-.3q-.731,1.091-1.5,2.158c-.63.871-1.268,1.739-1.853,2.639a2.579,2.579,0,0,1-2.02,1.336c-2.328.045-2.173-3.261-1.979-4.807a11.063,11.063,0,0,1,2.128-5.835,1.144,1.144,0,0,1,2,.971c-.3,1.558-.9,3.056-1.256,4.606a9.619,9.619,0,0,0-.348,1.9c-.055,2.73,1.107,1.084,1.775.255a48.829,48.829,0,0,0,3.6-5.277,10.854,10.854,0,0,1,.426-1.12A.986.986,0,0,1,249.134,76.351ZM244,86.753c-1.8.926-3.7,1.958-4.241,4.047-.144.554-.289,1.336.441,1.367s1.4-1.16,1.816-1.708a13.022,13.022,0,0,0,1.336-2.217C243.592,87.754,243.805,87.257,244,86.753Z" transform="translate(-238.374 -64.649)"/><path class="au" d="M263.887,80.371c-.274.688-.572,1.364-.883,2.036-.583,1.257-1.237,2.48-1.926,3.682s-1.491,2.4-3.036,2.365c-1.578-.035-2.207-1.913-2.5-3.209-.677-3.034-.055-6.382.613-9.37.289-1.292.624-2.579,1.029-3.842-.574.13-1.147.257-1.715.4-1.407.362-1.943-2.137-.64-2.608a13.332,13.332,0,0,1,3.464-.786c.2-.482.412-.961.637-1.431.321-.667.746-1.2,1.107-1.841.609-1.095,2.3-.153,2.021.952-.207.82-.448,1.63-.7,2.435a1.907,1.907,0,0,1,1.161.707.547.547,0,0,1-.136.805,5.678,5.678,0,0,1-1.721.606c-.476,1.421-.947,2.844-1.309,4.3a46.548,46.548,0,0,0-1.311,7.522c-.057.723-.246,3.532.784,3.694.248.04.723-.527.876-.706a10.288,10.288,0,0,0,.9-1.362c.6-.981,1.068-2.047,1.693-3,.175-.267,1.37-2.353,1.779-2.422a.089.089,0,0,1,.1.055C264.313,79.61,263.978,80.146,263.887,80.371Z" transform="translate(-237.258 -65.283)"/><path class="au" d="M271.094,79.344a3.026,3.026,0,0,1-1.831,2.069,1.975,1.975,0,0,1-1.156-.09,7,7,0,0,1-1.659,3.353,2.651,2.651,0,0,1-3.728-.1,4.858,4.858,0,0,1-1.021-4.855c.691-2.791,2.942-7.186,6.476-6.049a1.243,1.243,0,0,1,.54,1.809c.012.115.019.227.02.334a23.761,23.761,0,0,1-.418,4.492c-.015.087-.031.175-.049.262a.979.979,0,0,0,.455.141,2.216,2.216,0,0,0,.9-.243c.654-.318.841-.785,1.292-1.268C271.013,79.1,271.127,79.239,271.094,79.344Zm-4,1.327c-.037-.04-.074-.081-.109-.123a4.855,4.855,0,0,1-.915-3.161,8.615,8.615,0,0,0-1.053,2.075,6.4,6.4,0,0,0-.6,2.634c.064.555.505,1.059,1.121.786a2.579,2.579,0,0,0,.919-1.071C266.68,81.451,266.9,81.068,267.092,80.671Zm1.062-4.736a1,1,0,0,1-.123.034,2.43,2.43,0,0,0-.9.365,6.9,6.9,0,0,0,.02,2.57,3.17,3.17,0,0,0,.277,1.024,7.878,7.878,0,0,0,.433-1.372A8.952,8.952,0,0,0,268.155,75.935Z" transform="translate(-236.733 -64.7)"/><path class="au" d="M292.875,77.928a8.736,8.736,0,0,1-3.7,5.8,13.557,13.557,0,0,1-7.709,2.281c-1.391.059-1.419-2.154-.211-2.492,1.834-.515,3.826-.755,5.485-1.755a8.246,8.246,0,0,0,3.023-3.131c.479-.884.881-1.9-.013-2.717a4.018,4.018,0,0,0-2.839-1.027,5.023,5.023,0,0,0-2.447,1.074q-.733.691-1.527,1.345c-.456.378-1.377-.276-.925-.771a13.761,13.761,0,0,1,2-1.824,22.694,22.694,0,0,0,3.206-4.229c.486-.825,1.571-2.234,1.344-3.271-.355-1.62-3.09,1.176-3.517,1.632a18.772,18.772,0,0,0-3.743,5.977,38.555,38.555,0,0,0-1.339,4.16c-.3,1.125-.585,2.294-.786,3.47a16.121,16.121,0,0,1-.268,2.417,1.228,1.228,0,0,1-1.178,1.1,1.318,1.318,0,0,1-1.26-1.123,11.05,11.05,0,0,1-.054-3.982,27.324,27.324,0,0,1,.649-3.683,54.757,54.757,0,0,1,2.922-8.528.949.949,0,0,1,1.82.506c-.167.892-.318,1.788-.487,2.68a19.612,19.612,0,0,1,2.926-3.881c1.1-1.11,3.707-3.661,5.159-1.648,1.151,1.592-.522,4.078-1.368,5.4q-.533.834-1.128,1.592a6.335,6.335,0,0,1,1.282-.18A4.593,4.593,0,0,1,292.875,77.928Z" transform="translate(-235.684 -65.264)"/></g></g></g></svg>