<svg xmlns="http://www.w3.org/2000/svg" xmlns:xlink="http://www.w3.org/1999/xlink" width="915.868" height="421.352" viewBox="0 0 915.868 421.352"><defs><style>.a,.c{fill:none;}.b{clip-path:url(#a);}.c{stroke:#fff;stroke-miterlimit:10;stroke-width:2px;opacity:0.5;}</style><clipPath id="a"><rect class="a" width="915.868" height="421.352"/></clipPath></defs><g class="b"><g transform="translate(-41.472 25.844)"><path class="c" d="M265.459,2265.8l-33.9-60.014,34.7-60.014h71.877l34.194,60.014-34.7,60.014Z" transform="translate(-124.965 -1845.809)"/><path class="c" d="M165.933,1985.725l-33.9-60.014,34.7-60.014h71.877l34.194,60.014-34.7,60.014Z" transform="translate(-132.032 -1865.697)"/><path class="c" d="M165.933,2210.251l-33.9-60.014,34.7-60.014h71.877l34.194,60.014-34.7,60.014Z" transform="translate(-132.032 -1849.754)"/><path class="c" d="M165.933,2322.194l-33.9-60.014,34.7-60.014h71.877L272.8,2262.18l-34.7,60.014Z" transform="translate(-132.032 -1841.805)"/><path class="c" d="M988.69,2012.589l-33.9-60.014,34.7-60.014h71.877l34.194,60.014-34.7,60.014Z" transform="translate(-73.608 -1863.79)"/></g></g></svg>